<svg width="24" height="24" viewBox="0 0 24 24" fill="none" xmlns="http://www.w3.org/2000/svg">
    <rect width="24" height="24" rx="8" fill="#F2F2F2"/>
    <path d="M15.9507 9.56213C16.3684 9.14437 16.3685 8.46706 15.9507 8.0493C15.5329 7.63155 14.8556 7.63155 14.4379 8.0493L12 10.4872L9.56213 8.0493C9.14437 7.63155 8.46706 7.63155 8.0493 8.0493C7.63155 8.46706 7.63155 9.14437 8.0493 9.56212L10.4872 12L8.0493 14.4379C7.63155 14.8556 7.63155 15.5329 8.0493 15.9507C8.46706 16.3685 9.14437 16.3685 9.56212 15.9507L9.20857 15.5971L9.56212 15.9507L12 13.5128L14.4379 15.9507C14.8556 16.3684 15.5329 16.3685 15.9507 15.9507L15.5971 15.5971L15.9507 15.9507C16.3685 15.5329 16.3685 14.8556 15.9507 14.4379L13.5128 12L15.9507 9.56213Z" fill="#929AA3" stroke="#929AA3"/>
</svg>
